# Object Export From Tinkercad Server 2015

mtllib obj.mtl

o obj_0
v 0.15 		0.231 		0.01
v 0.15 		0.231 		0.012
v -0.093 		0.023 		0.012
v -0.022 		0.124 		0.012
v -0.073 		-0.253 		0.138
v -0.237 		-0.159 		0.08
v 0.177 		0.136 		0.012
v 0.131 		0.311 		0.01
v 0.155 		0.311 		0.01
v 0.211 		0.31 		0.01
v -0.243 		-0.067 		0.122
v -0.243 		-0.244 		0.02
v -0.083 		-0.242 		0.137
v -0.236 		-0.238 		0.036
v 0.205 		0.223 		0.012
v 0.235 		0.31 		0.01
v -0.046 		0.027 		0.012
v 0.205 		0.223 		0.01
v -0.195 		-0.091 		0.138
v -0.193 		-0.116 		0.122
v -0.204 		-0.106 		0.122
v 0.06 		0.31 		0.01
v 0.084 		0.31 		0.01
v 0.177 		0.136 		0.01
v -0.27 		-0.204 		0.137
v -0.275 		-0.198 		0.122
v -0.025 		0.016 		0.012
v 0.2 		0.131 		0.012
v 0.2 		0.131 		0.01
v -0.067 		-0.246 		0.122
v -0.077 		-0.235 		0.122
v -0.231 		-0.164 		0.138
v 0.229 		0.221 		0.012
v 0.229 		0.221 		0.01
v -0.237 		-0.159 		0.122
v 0.13 		-0.092 		0.146
v 0.055 		0.244 		0.01
v 0.13 		-0.092 		0.012
v 0.055 		0.244 		0.148
v 0.126 		0.234 		0.01
v 0.055 		0.244 		0.146
v 0.078 		0.24 		0.01
v 0.098 		-0.046 		0.146
v 0.098 		-0.046 		0.148
v -0.103 		-0.285 		0.021
v 0.126 		0.234 		0.148
v 0.037 		0.169 		0.01
v -0.199 		-0.122 		0.137
v -0.21 		-0.112 		0.138
v 0.101 		0.153 		0.01
v -0.119 		-0.28 		0.036
v -0.21 		-0.112 		0.137
v 0.124 		0.148 		0.01
v -0.209 		-0.111 		0.137
v 0.06 		0.164 		0.01
v 0.076 		-0.035 		0.148
v 0.076 		-0.035 		0.146
v 0.151 		0.081 		0.01
v 0.126 		0.234 		0.146
v 0.033 		-0.015 		0.148
v 0.033 		-0.015 		0.146
v -0.248 		-0.149 		0.122
v 0.012 		-0.005 		0.148
v 0.012 		-0.005 		0.146
v 0.174 		0.073 		0.01
v 0.078 		0.24 		0.146
v 0.078 		0.24 		0.148
v 0.081 		0.103 		0.01
v 0.015 		0.24 		0.146
v 0.014 		0.127 		0.01
v -0.241 		-0.142 		0.137
v 0.037 		0.119 		0.01
v 0.103 		0.095 		0.01
v 0.037 		0.169 		0.146
v -0.275 		-0.198 		0.036
v 0.037 		0.169 		0.148
v -0.046 		0.027 		0.01
v 0.101 		0.153 		0.146
v 0.101 		0.153 		0.148
v -0.025 		0.016 		0.01
v 0.012 		-0.005 		0.01
v 0.076 		-0.035 		0.01
v -0.27 		-0.204 		0.021
v 0.012 		-0.005 		0.012
v 0.033 		-0.015 		0.01
v 0.124 		0.148 		0.148
v 0.124 		0.148 		0.146
v -0.163 		-0.314 		0.137
v 0.098 		-0.046 		0.01
v 0.06 		0.164 		0.148
v 0.06 		0.164 		0.146
v -0.19 		-0.286 		0.138
v 0.011 		-0.142 		0.01
v 0.076 		-0.035 		0.012
v 0.033 		-0.015 		0.012
v -0.158 		-0.32 		0.122
v -0.093 		-0.055 		0.01
v -0.11 		-0.038 		0.01
v 0.098 		-0.046 		0.012
v -0.048 		-0.095 		0.01
v -0.065 		-0.077 		0.01
v -0.006 		-0.125 		0.01
v 0.28 		0.324 		0.146
v -0.235 		-0.05 		0.012
v 0.28 		0.324 		0.012
v 0.011 		-0.142 		0.148
v 0.011 		-0.142 		0.146
v -0.225 		-0.06 		0.021
v 0.025 		0.324 		0.146
v -0.231 		-0.055 		0.036
v 0.013 		-0.202 		0.146
v 0.025 		0.324 		0.012
v 0.016 		-0.252 		0.146
v 0.155 		0.311 		0.148
v 0.131 		0.311 		0.148
v 0.013 		-0.202 		0.012
v 0.011 		-0.142 		0.012
v 0.235 		0.31 		0.148
v 0.211 		0.31 		0.148
v 0.084 		0.31 		0.148
v 0.06 		0.31 		0.148
v 0.205 		0.223 		0.148
v 0.177 		0.136 		0.148
v 0.15 		0.231 		0.148
v 0.016 		-0.252 		0.012
v 0.2 		0.131 		0.148
v 0.229 		0.221 		0.148
v -0.156 		-0.241 		0.122
v -0.151 		-0.246 		0.137
v -0.165 		-0.036 		0.012
v -0.014 		-0.275 		0.146
v -0.205 		-0.026 		0.012
v -0.093 		-0.055 		0.146
v -0.11 		-0.038 		0.146
v -0.093 		-0.055 		0.148
v -0.11 		-0.038 		0.148
v 0.055 		0.244 		0.012
v 0.151 		0.081 		0.148
v -0.048 		-0.095 		0.146
v -0.048 		-0.095 		0.148
v -0.065 		-0.077 		0.148
v -0.065 		-0.077 		0.146
v 0.174 		0.073 		0.148
v 0.126 		0.234 		0.012
v 0.078 		0.24 		0.012
v -0.055 		-0.233 		0.122
v 0.081 		0.103 		0.148
v -0.232 		-0.318 		0.137
v 0.015 		0.24 		0.012
v 0.103 		0.095 		0.148
v -0.006 		-0.125 		0.148
v -0.006 		-0.125 		0.146
v -0.238 		-0.324 		0.122
v 0.014 		0.127 		0.148
v -0.195 		-0.28 		0.122
v 0.037 		0.119 		0.148
v -0.201 		-0.286 		0.138
v 0.037 		0.169 		0.012
v -0.192 		-0.094 		0.035
v 0.101 		0.153 		0.012
v -0.046 		0.027 		0.148
v 0.124 		0.148 		0.012
v -0.025 		0.016 		0.148
v -0.193 		-0.116 		0.036
v -0.195 		-0.279 		0.122
v -0.199 		-0.122 		0.021
v 0.06 		0.164 		0.012
v -0.035 		-0.28 		0.137
v -0.022 		-0.267 		0.137
v -0.11 		-0.038 		0.012
v -0.093 		-0.055 		0.012
v -0.017 		-0.272 		0.122
v -0.03 		-0.286 		0.122
v 0.174 		0.073 		0.146
v -0.21 		-0.112 		0.02
v 0.151 		0.081 		0.146
v -0.198 		-0.197 		0.122
v 0.218 		0.042 		0.146
v 0.242 		0.111 		0.146
v -0.204 		-0.192 		0.137
v -0.242 		-0.232 		0.138
v 0.131 		0.311 		0.146
v -0.065 		-0.077 		0.012
v -0.237 		-0.073 		0.021
v 0.155 		0.311 		0.146
v -0.048 		-0.095 		0.012
v -0.062 		-0.252 		0.02
v 0.211 		0.31 		0.146
v -0.243 		-0.067 		0.036
v 0.235 		0.31 		0.146
v 0.174 		0.073 		0.012
v 0.151 		0.081 		0.012
v -0.103 		-0.285 		0.137
v 0.242 		0.111 		0.012
v 0.218 		0.042 		0.012
v -0.113 		-0.274 		0.138
v -0.195 		-0.091 		0.02
v -0.236 		-0.238 		0.122
v -0.124 		-0.274 		0.138
v 0.131 		0.311 		0.012
v -0.243 		-0.244 		0.138
v 0.155 		0.311 		0.012
v -0.049 		-0.239 		0.02
v -0.006 		-0.125 		0.012
v -0.055 		-0.233 		0.036
v -0.236 		-0.237 		0.122
v 0.211 		0.31 		0.012
v 0.235 		0.31 		0.012
v 0.06 		0.31 		0.146
v 0.084 		0.31 		0.146
v 0.103 		0.095 		0.146
v -0.235 		-0.05 		0.146
v -0.165 		-0.036 		0.146
v 0.081 		0.103 		0.146
v 0.06 		0.31 		0.012
v -0.205 		-0.026 		0.146
v 0.084 		0.31 		0.012
v -0.067 		-0.246 		0.036
v -0.073 		-0.253 		0.02
v -0.083 		-0.242 		0.021
v 0.037 		0.119 		0.146
v -0.077 		-0.235 		0.036
v -0.231 		-0.164 		0.022
v 0.014 		0.127 		0.146
v -0.109 		-0.291 		0.122
v -0.237 		-0.159 		0.036
v -0.241 		-0.142 		0.021
v -0.231 		-0.164 		0.02
v -0.128 		-0.159 		0.146
v 0.269 		0.207 		0.146
v 0.269 		0.207 		0.012
v -0.049 		-0.239 		0.138
v -0.158 		-0.32 		0.036
v -0.248 		-0.149 		0.036
v -0.119 		-0.28 		0.122
v 0.205 		0.223 		0.146
v -0.163 		-0.314 		0.021
v 0.177 		0.136 		0.146
v 0.15 		0.231 		0.146
v -0.062 		-0.252 		0.138
v -0.231 		-0.055 		0.122
v -0.19 		-0.286 		0.02
v -0.014 		-0.275 		0.012
v -0.03 		-0.286 		0.036
v -0.017 		-0.272 		0.036
v -0.225 		-0.06 		0.137
v -0.035 		-0.28 		0.021
v -0.022 		-0.267 		0.021
v -0.192 		-0.094 		0.123
v 0.081 		0.103 		0.012
v 0.037 		0.119 		0.012
v 0.014 		0.127 		0.012
v -0.204 		-0.192 		0.021
v 0.2 		0.131 		0.146
v 0.229 		0.221 		0.146
v 0.103 		0.095 		0.012
v -0.109 		-0.291 		0.036
v -0.242 		-0.232 		0.02
v -0.236 		-0.237 		0.036
v -0.198 		-0.197 		0.036
v -0.124 		-0.274 		0.02
v -0.113 		-0.274 		0.02
v -0.237 		-0.073 		0.137
v -0.005 		0.17 		0.146
v -0.195 		-0.28 		0.036
v -0.005 		0.17 		0.012
v -0.236 		-0.165 		0.117
v -0.022 		0.124 		0.146
v -0.195 		-0.279 		0.036
v -0.093 		0.023 		0.146
v -0.238 		-0.324 		0.036
v -0.156 		-0.241 		0.036
v -0.046 		0.027 		0.146
v -0.232 		-0.318 		0.021
v -0.151 		-0.246 		0.021
v -0.233 		-0.163 		0.122
v -0.025 		0.016 		0.146
v -0.201 		-0.286 		0.02
v -0.28 		-0.281 		0.036
v -0.28 		-0.281 		0.122
v -0.274 		-0.275 		0.021
v -0.274 		-0.275 		0.137
# 282 vertices

g group_0_11909273

usemtl color_11909273
s 0

f 7 	2 	15
f 3 	4 	17
f 10 	18 	15
f 20 	164 	21
f 22 	23 	37
f 24 	7 	15
f 24 	15 	18
f 5 	13 	196
f 53 	40 	1
f 8 	9 	1
f 30 	31 	13
f 16 	33 	34
f 28 	29 	34
f 28 	34 	33
f 16 	34 	10
f 24 	18 	29
f 34 	29 	18
f 18 	10 	34
f 28 	33 	231
f 111 	38 	36
f 1 	40 	8
f 30 	13 	5
f 42 	55 	37
f 23 	42 	37
f 48 	52 	49
f 40 	53 	50
f 43 	174 	44
f 49 	52 	54
f 21 	54 	52
f 47 	37 	55
f 13 	31 	128
f 56 	57 	152
f 60 	139 	61
f 65 	58 	24
f 65 	24 	29
f 90 	91 	67
f 66 	67 	91
f 43 	107 	36
f 120 	67 	66
f 36 	178 	43
f 53 	73 	50
f 152 	57 	61
f 62 	35 	71
f 91 	78 	66
f 72 	80 	70
f 70 	47 	72
f 55 	72 	47
f 32 	71 	35
f 68 	50 	73
f 65 	89 	58
f 21 	52 	48
f 21 	48 	20
f 74 	76 	39
f 74 	39 	41
f 73 	85 	68
f 77 	70 	80
f 80 	97 	77
f 98 	77 	97
f 78 	79 	46
f 78 	46 	59
f 100 	81 	85
f 81 	68 	85
f 62 	71 	11
f 82 	58 	89
f 26 	75 	280
f 89 	93 	82
f 69 	264 	74
f 41 	69 	74
f 73 	256 	85
f 81 	100 	101
f 117 	89 	99
f 65 	191 	89
f 102 	82 	93
f 282 	25 	26
f 117 	99 	38
f 91 	221 	214
f 59 	66 	78
f 191 	195 	99
f 107 	43 	106
f 44 	106 	43
f 25 	201 	181
f 48 	71 	32
f 25 	282 	201
f 111 	36 	107
f 103 	105 	109
f 112 	109 	105
f 108 	184 	110
f 116 	38 	111
f 124 	114 	115
f 89 	117 	93
f 122 	127 	119
f 39 	120 	121
f 71 	48 	49
f 113 	125 	116
f 113 	116 	111
f 122 	123 	126
f 122 	126 	127
f 118 	119 	127
f 75 	279 	280
f 117 	38 	116
f 46 	124 	115
f 110 	104 	108
f 124 	46 	86
f 204 	93 	117
f 110 	189 	241
f 90 	67 	39
f 120 	39 	67
f 241 	212 	110
f 157 	92 	155
f 133 	135 	136
f 133 	136 	134
f 46 	79 	86
f 51 	235 	233
f 39 	76 	90
f 47 	137 	37
f 130 	104 	132
f 139 	140 	141
f 139 	141 	142
f 88 	92 	157
f 144 	200 	40
f 126 	123 	143
f 138 	143 	123
f 23 	145 	42
f 86 	79 	150
f 147 	150 	79
f 88 	148 	96
f 167 	42 	145
f 163 	135 	133
f 148 	153 	96
f 232 	229 	146
f 151 	56 	152
f 60 	140 	139
f 154 	156 	76
f 90 	76 	156
f 64 	142 	63
f 141 	63 	142
f 69 	109 	149
f 252 	158 	47
f 44 	143 	138
f 47 	158 	137
f 133 	229 	142
f 142 	229 	139
f 50 	250 	160
f 63 	60 	147
f 150 	147 	60
f 40 	50 	160
f 40 	160 	144
f 161 	163 	154
f 61 	139 	152
f 162 	53 	2
f 136 	135 	161
f 156 	154 	163
f 162 	256 	53
f 116 	243 	186
f 204 	116 	186
f 186 	104 	183
f 117 	116 	204
f 21 	164 	166
f 155 	165 	157
f 139 	229 	152
f 42 	167 	55
f 138 	56 	44
f 133 	142 	277
f 64 	277 	142
f 252 	266 	158
f 137 	158 	149
f 266 	149 	158
f 44 	56 	106
f 250 	167 	160
f 167 	145 	160
f 144 	160 	145
f 170 	98 	97
f 170 	97 	171
f 2 	7 	162
f 163 	161 	135
f 81 	101 	183
f 81 	183 	84
f 56 	151 	106
f 172 	169 	168
f 100 	85 	95
f 168 	173 	172
f 69 	149 	266
f 60 	63 	140
f 141 	140 	63
f 98 	170 	17
f 143 	174 	254
f 128 	155 	129
f 249 	21 	159
f 155 	92 	129
f 123 	176 	138
f 44 	174 	143
f 84 	183 	27
f 171 	27 	183
f 175 	159 	21
f 172 	131 	169
f 164 	20 	177
f 178 	179 	174
f 254 	174 	179
f 104 	130 	171
f 17 	170 	3
f 3 	170 	130
f 33 	208 	231
f 103 	231 	105
f 183 	104 	171
f 130 	270 	3
f 174 	43 	178
f 182 	115 	114
f 182 	114 	185
f 183 	101 	100
f 183 	100 	186
f 178 	195 	179
f 245 	243 	172
f 195 	178 	38
f 36 	38 	178
f 131 	172 	243
f 194 	231 	179
f 155 	265 	165
f 188 	119 	118
f 188 	118 	190
f 184 	189 	110
f 48 	177 	20
f 113 	131 	125
f 243 	125 	131
f 11 	241 	189
f 29 	28 	65
f 191 	65 	28
f 232 	240 	169
f 114 	124 	239
f 114 	239 	185
f 122 	119 	188
f 58 	94 	192
f 203 	187 	218
f 24 	58 	192
f 24 	192 	7
f 146 	205 	30
f 182 	185 	109
f 103 	109 	185
f 193 	173 	168
f 48 	180 	177
f 195 	191 	194
f 191 	28 	194
f 62 	11 	189
f 103 	185 	188
f 103 	188 	190
f 255 	230 	190
f 197 	175 	184
f 188 	185 	239
f 195 	194 	179
f 198 	181 	201
f 100 	95 	186
f 271 	233 	153
f 180 	32 	25
f 202 	9 	8
f 202 	8 	200
f 82 	102 	204
f 82 	204 	94
f 180 	25 	181
f 2 	1 	9
f 2 	9 	202
f 102 	93 	204
f 200 	112 	202
f 105 	207 	202
f 15 	2 	207
f 202 	207 	2
f 197 	184 	108
f 15 	207 	10
f 208 	16 	10
f 208 	10 	207
f 206 	177 	180
f 198 	157 	165
f 197 	159 	175
f 33 	16 	208
f 197 	108 	104
f 207 	105 	208
f 105 	231 	208
f 14 	165 	269
f 199 	92 	88
f 206 	180 	181
f 206 	181 	198
f 69 	41 	209
f 69 	209 	109
f 209 	41 	121
f 39 	121 	41
f 175 	21 	166
f 88 	157 	148
f 121 	120 	210
f 121 	210 	209
f 170 	171 	130
f 59 	46 	182
f 115 	182 	46
f 120 	66 	210
f 218 	30 	205
f 204 	95 	94
f 186 	95 	204
f 210 	182 	109
f 209 	210 	109
f 61 	57 	211
f 157 	198 	201
f 182 	210 	59
f 66 	59 	210
f 211 	150 	61
f 109 	112 	149
f 78 	214 	79
f 147 	79 	214
f 213 	134 	270
f 165 	14 	198
f 37 	137 	22
f 215 	22 	137
f 157 	201 	282
f 8 	40 	200
f 211 	87 	150
f 86 	150 	87
f 216 	213 	130
f 125 	243 	116
f 23 	217 	145
f 157 	282 	148
f 134 	213 	229
f 213 	216 	229
f 212 	229 	216
f 14 	206 	198
f 199 	196 	13
f 218 	219 	220
f 78 	91 	214
f 235 	199 	88
f 90 	156 	221
f 90 	221 	91
f 74 	264 	224
f 220 	222 	218
f 74 	224 	76
f 154 	76 	224
f 75 	6 	83
f 23 	22 	215
f 23 	215 	217
f 223 	226 	227
f 137 	149 	215
f 149 	112 	215
f 105 	202 	112
f 106 	151 	152
f 106 	152 	107
f 6 	223 	83
f 173 	193 	225
f 56 	138 	176
f 56 	176 	57
f 145 	217 	144
f 200 	144 	217
f 217 	112 	200
f 215 	112 	217
f 227 	228 	223
f 150 	60 	61
f 152 	229 	107
f 111 	107 	229
f 131 	113 	229
f 111 	229 	113
f 272 	222 	220
f 103 	230 	231
f 156 	163 	221
f 103 	190 	230
f 196 	199 	235
f 63 	147 	214
f 63 	214 	64
f 231 	194 	28
f 226 	234 	227
f 230 	179 	231
f 235 	225 	193
f 122 	188 	236
f 123 	238 	176
f 229 	232 	131
f 196 	235 	193
f 233 	237 	51
f 188 	239 	236
f 211 	176 	87
f 238 	87 	176
f 239 	87 	238
f 236 	239 	238
f 96 	235 	88
f 239 	124 	86
f 239 	86 	87
f 168 	169 	240
f 244 	225 	257
f 5 	168 	240
f 218 	187 	219
f 62 	234 	6
f 226 	6 	234
f 96 	233 	235
f 129 	92 	199
f 5 	193 	168
f 30 	5 	240
f 219 	262 	220
f 257 	225 	51
f 235 	51 	225
f 6 	226 	223
f 30 	240 	232
f 234 	189 	227
f 196 	193 	5
f 104 	110 	212
f 184 	227 	189
f 104 	186 	243
f 187 	247 	219
f 213 	270 	130
f 172 	173 	244
f 172 	244 	245
f 247 	45 	219
f 216 	130 	132
f 62 	189 	234
f 219 	45 	262
f 212 	216 	104
f 166 	228 	227
f 199 	13 	129
f 247 	248 	245
f 228 	166 	253
f 13 	128 	129
f 244 	247 	245
f 265 	272 	275
f 218 	205 	203
f 227 	175 	166
f 184 	175 	227
f 246 	212 	241
f 272 	128 	222
f 19 	212 	246
f 176 	211 	57
f 104 	216 	132
f 214 	221 	64
f 277 	64 	221
f 229 	205 	146
f 218 	31 	30
f 222 	31 	218
f 83 	223 	228
f 50 	68 	250
f 169 	131 	232
f 251 	72 	55
f 251 	55 	167
f 146 	30 	232
f 236 	238 	123
f 236 	123 	122
f 47 	70 	252
f 254 	126 	143
f 248 	243 	245
f 252 	70 	77
f 252 	77 	17
f 255 	190 	127
f 118 	127 	190
f 127 	126 	254
f 127 	254 	255
f 203 	248 	187
f 167 	250 	251
f 197 	243 	203
f 179 	230 	254
f 205 	197 	203
f 17 	4 	252
f 166 	260 	253
f 255 	254 	230
f 243 	197 	104
f 247 	187 	248
f 248 	203 	243
f 2 	53 	1
f 261 	242 	275
f 73 	53 	256
f 173 	225 	244
f 256 	162 	192
f 94 	256 	192
f 197 	205 	159
f 7 	192 	162
f 72 	251 	80
f 27 	80 	251
f 19 	249 	229
f 19 	54 	21
f 83 	258 	12
f 159 	229 	249
f 259 	258 	253
f 133 	134 	229
f 27 	251 	84
f 250 	84 	251
f 19 	49 	54
f 84 	250 	81
f 68 	81 	250
f 212 	19 	229
f 253 	260 	259
f 21 	249 	19
f 244 	45 	247
f 99 	89 	191
f 206 	259 	177
f 58 	82 	94
f 95 	85 	256
f 166 	164 	260
f 205 	229 	159
f 38 	99 	195
f 244 	257 	45
f 261 	262 	51
f 95 	256 	94
f 263 	11 	71
f 177 	260 	164
f 265 	275 	242
f 83 	228 	253
f 268 	224 	264
f 237 	261 	51
f 266 	264 	69
f 237 	242 	261
f 259 	14 	258
f 32 	35 	267
f 14 	12 	258
f 4 	268 	266
f 264 	266 	268
f 260 	177 	259
f 4 	266 	252
f 259 	206 	14
f 246 	241 	263
f 155 	128 	265
f 51 	262 	45
f 165 	265 	269
f 241 	11 	263
f 35 	276 	267
f 270 	268 	4
f 270 	4 	3
f 253 	258 	83
f 32 	267 	25
f 224 	268 	273
f 270 	273 	268
f 96 	153 	233
f 273 	161 	224
f 220 	262 	261
f 6 	26 	25
f 265 	128 	272
f 153 	280 	279
f 51 	45 	257
f 154 	224 	161
f 274 	237 	233
f 6 	75 	26
f 273 	270 	134
f 267 	6 	25
f 31 	222 	128
f 273 	134 	161
f 136 	161 	134
f 263 	19 	246
f 267 	276 	6
f 277 	163 	133
f 19 	263 	49
f 163 	277 	221
f 263 	71 	49
f 220 	275 	272
f 274 	233 	271
f 77 	98 	17
f 278 	242 	237
f 6 	276 	35
f 97 	80 	27
f 97 	27 	171
f 220 	261 	275
f 180 	48 	32
f 278 	237 	274
f 269 	278 	14
f 12 	14 	278
f 265 	242 	278
f 269 	265 	278
f 271 	279 	274
f 281 	274 	279
f 35 	62 	6
f 278 	274 	281
f 271 	153 	279
f 148 	282 	280
f 148 	280 	153
f 282 	26 	280
f 281 	12 	278
f 281 	279 	75
f 83 	281 	75
f 83 	12 	281
# 564 faces

 #end of obj_0

